<svg width="280" height="140" viewBox="0 0 280 140" fill="none" xmlns="http://www.w3.org/2000/svg">
  <rect width="140" height="140" fill="#F7DF1E"/>
  <rect x="140" width="140" height="140" fill="#333333"/>
  <path d="M25.4038 131V121.88H34.5238V131H25.4038ZM49.8781 116.6V125.24H63.2701V131H43.1581V97.4H63.2701V103.16H49.8781V110.84H60.3901V116.6H49.8781ZM76.2219 109.256V131H69.5019V97.4H75.7899L90.2859 119.144H90.3819V97.4H97.1019V131H90.8139L76.3179 109.256H76.2219ZM133.3 97.4L121.3 131H113.908L101.908 97.4H108.724L117.604 122.792H117.7L126.484 97.4H133.3Z" fill="#333333"/>
  <path d="M155.12 115.88V131H150.32V97.4H169.952V101.72H155.12V111.56H167.072V115.88H155.12ZM175.726 131V97.4H180.526V126.68H192.958V131H175.726ZM223.895 128.024L218.327 131.24H204.263L198.695 128.024V100.376L204.263 97.16H218.327L223.895 100.376V128.024ZM203.495 101.48V126.92H219.095V101.48H203.495ZM272.667 97.4L264.027 131H258.315L251.211 104.072H251.115L244.011 131H238.299L229.659 97.4H234.315L241.131 124.856H241.227L248.475 97.4H253.851L261.051 124.856H261.147L268.011 97.4H272.667Z" fill="#F7DF1E"/>
  <rect x="136" y="112" width="4" height="6" fill="#333333"/>
  <rect x="140" y="112" width="4" height="6" fill="#F7DF1E"/>
  <path d="M173.481 14V12.2H175.281V14H173.481ZM182.177 12.956V14H178.829L177.437 13.196V8.744L178.829 7.94H180.785L182.177 8.744V11.408H178.601V12.956H182.177ZM178.601 8.984V10.364H181.013V8.984H178.601ZM189.193 8.744V14H188.029V8.984H185.257V14H184.093V7.94H184.969L185.257 8.432L186.109 7.94H187.801L189.193 8.744ZM191.532 8L193.296 12.896H193.32L195.096 8H196.236L194.016 14H192.612L190.392 8H191.532ZM197.68 14V12.2H199.48V14H197.68ZM203.028 7.94H204.84L205.692 8.432V5.24H206.856V14.06H205.98L205.692 13.568L204.84 14.06H203.028L201.636 13.256V8.744L203.028 7.94ZM205.692 13.016V8.984H202.8V13.016H205.692ZM213.513 12.956V14H210.165L208.773 13.196V8.744L210.165 7.94H212.121L213.513 8.744V11.408H209.937V12.956H213.513ZM209.937 8.984V10.364H212.349V8.984H209.937ZM215.849 8L217.613 12.896H217.637L219.413 8H220.553L218.333 14H216.929L214.709 8H215.849ZM226.497 12.956V14H223.149L221.757 13.196V8.744L223.149 7.94H225.105L226.497 8.744V11.408H222.921V12.956H226.497ZM222.921 8.984V10.364H225.333V8.984H222.921ZM229.805 14L228.413 13.196V5.24H229.577V12.956H231.017V14H229.805ZM237.322 13.256L235.93 14.06H233.614L232.222 13.256V8.744L233.614 7.94H235.93L237.322 8.744V13.256ZM233.386 8.984V13.016H236.158V8.984H233.386ZM243.069 14.06H241.257L240.405 13.568V16.4H239.241V7.94H240.117L240.405 8.432L241.257 7.94H243.069L244.461 8.744V13.256L243.069 14.06ZM240.405 8.984V13.016H243.297V8.984H240.405ZM254.454 8.744V14H253.29V8.984H250.998V14H249.834V8.984H247.542V14H246.378V7.94H247.254L247.542 8.432L248.394 7.94H249.606L250.722 8.588L251.85 7.94H253.062L254.454 8.744ZM261.114 12.956V14H257.766L256.374 13.196V8.744L257.766 7.94H259.722L261.114 8.744V11.408H257.538V12.956H261.114ZM257.538 8.984V10.364H259.95V8.984H257.538ZM268.13 8.744V14H266.966V8.984H264.194V14H263.03V7.94H263.906L264.194 8.432L265.046 7.94H266.738L268.13 8.744ZM269.57 9.044V8H270.674V6.992L271.838 6.32V8H273.278V9.044H271.838V12.956H273.278V14H272.066L270.674 13.196V9.044H269.57ZM223.895 28V26.2H225.695V28H223.895ZM232.591 26.956V28H229.243L227.851 27.196V22.744L229.243 21.94H231.199L232.591 22.744V25.408H229.015V26.956H232.591ZM229.015 22.984V24.364H231.427V22.984H229.015ZM239.607 22.744V28H238.443V22.984H235.671V28H234.507V21.94H235.383L235.671 22.432L236.523 21.94H238.215L239.607 22.744ZM241.946 22L243.71 26.896H243.734L245.51 22H246.65L244.43 28H243.026L240.806 22H241.946ZM248.095 28V26.2H249.895V28H248.095ZM251.57 23.044V22H252.674V20.992L253.838 20.32V22H255.278V23.044H253.838V26.956H255.278V28H254.066L252.674 27.196V23.044H251.57ZM261.7 26.956V28H258.352L256.96 27.196V22.744L258.352 21.94H260.308L261.7 22.744V25.408H258.124V26.956H261.7ZM258.124 22.984V24.364H260.536V22.984H258.124ZM268.128 25.24V27.196L266.736 28H263.616V26.956H266.964V25.48H265.008L263.616 24.676V22.804L265.008 22H268.008V23.044H264.78V24.436H266.736L268.128 25.24ZM269.57 23.044V22H270.674V20.992L271.838 20.32V22H273.278V23.044H271.838V26.956H273.278V28H272.066L270.674 27.196V23.044H269.57ZM215.481 42V40.2H217.281V42H215.481ZM224.177 40.956V42H220.829L219.437 41.196V36.744L220.829 35.94H222.785L224.177 36.744V39.408H220.601V40.956H224.177ZM220.601 36.984V38.364H223.013V36.984H220.601ZM231.193 36.744V42H230.029V36.984H227.257V42H226.093V35.94H226.969L227.257 36.432L228.109 35.94H229.801L231.193 36.744ZM233.532 36L235.296 40.896H235.32L237.096 36H238.236L236.016 42H234.612L232.392 36H233.532ZM239.68 42V40.2H241.48V42H239.68ZM248.148 39.24V41.196L246.756 42H243.636V40.956H246.984V39.48H245.028L243.636 38.676V36.804L245.028 36H248.028V37.044H244.8V38.436H246.756L248.148 39.24ZM249.589 37.044V36H250.693V34.992L251.857 34.32V36H253.297V37.044H251.857V40.956H253.297V42H252.085L250.693 41.196V37.044H249.589ZM255.904 39.54V41.016H258.316V39.54H255.904ZM256.132 42.06L254.74 41.256V39.3L256.132 38.496H258.316V37.044H255.34V36H258.088L259.48 36.804V42.06H259.168L258.316 41.568L257.464 42.06H256.132ZM262.565 42L261.401 41.328V40.248L262.253 39.756L261.401 39.264V36.804L262.793 36H266.621V36.408L265.529 37.044L266.261 37.476V39.132L264.869 39.936H262.565V40.956H265.229L266.621 41.76V43.656L265.229 44.46H262.553L261.161 43.656V42.912L262.325 42.24V43.44H265.457V42H262.565ZM262.565 37.02V38.916H265.097V37.02H262.565ZM273.044 40.956V42H269.696L268.304 41.196V36.744L269.696 35.94H271.652L273.044 36.744V39.408H269.468V40.956H273.044ZM269.468 36.984V38.364H271.88V36.984H269.468ZM185.622 56V54.2H187.422V56H185.622ZM194.317 54.956V56H190.969L189.577 55.196V50.744L190.969 49.94H192.925L194.317 50.744V53.408H190.741V54.956H194.317ZM190.741 50.984V52.364H193.153V50.984H190.741ZM201.333 50.744V56H200.169V50.984H197.397V56H196.233V49.94H197.109L197.397 50.432L198.249 49.94H199.941L201.333 50.744ZM203.673 50L205.437 54.896H205.461L207.237 50H208.377L206.157 56H204.753L202.533 50H203.673ZM209.821 56V54.2H211.621V56H209.821ZM217.604 56.06H215.792L214.94 55.568V58.4H213.776V49.94H214.652L214.94 50.432L215.792 49.94H217.604L218.996 50.744V55.256L217.604 56.06ZM214.94 50.984V55.016H217.832V50.984H214.94ZM224.261 51.044H222.077V56H220.913V50H221.789L222.077 50.492L222.929 50H224.261V51.044ZM230.677 55.256L229.285 56.06H226.969L225.577 55.256V50.744L226.969 49.94H229.285L230.677 50.744V55.256ZM226.741 50.984V55.016H229.513V50.984H226.741ZM233.989 49.94H235.801L236.653 50.432V47.24H237.817V56.06H236.941L236.653 55.568L235.801 56.06H233.989L232.597 55.256V50.744L233.989 49.94ZM236.653 55.016V50.984H233.761V55.016H236.653ZM239.733 55.256V50H240.897V55.016H243.669V50H244.833V56.06H243.957L243.669 55.568L242.817 56.06H241.125L239.733 55.256ZM247.917 51.044V54.956H251.253V56H248.145L246.753 55.196V50.804L248.145 50H251.253V51.044H247.917ZM252.449 51.044V50H253.553V48.992L254.717 48.32V50H256.157V51.044H254.717V54.956H256.157V56H254.945L253.553 55.196V51.044H252.449ZM259.003 50V56H257.839V50H259.003ZM257.779 48.524V47.24H259.063V48.524H257.779ZM266.021 55.256L264.629 56.06H262.313L260.921 55.256V50.744L262.313 49.94H264.629L266.021 50.744V55.256ZM262.085 50.984V55.016H264.857V50.984H262.085ZM273.04 50.744V56H271.876V50.984H269.104V56H267.94V49.94H268.816L269.104 50.432L269.956 49.94H271.648L273.04 50.744ZM228.333 63.08V72.56H229.929V73.4H227.373V62.24H229.929V63.08H228.333ZM234.024 64.712L233.904 62.48H234.96L234.84 64.712L236.916 63.908L237.252 64.904L235.104 65.48L236.496 67.196L235.644 67.832L234.432 65.984L233.22 67.832L232.368 67.196L233.76 65.48L231.612 64.904L231.948 63.908L234.024 64.712ZM239.411 71V69.2H241.211V71H239.411ZM244.758 71L243.366 70.196V62.24H244.53V69.956H245.97V71H244.758ZM252.275 70.256L250.883 71.06H248.567L247.175 70.256V65.744L248.567 64.94H250.883L252.275 65.744V70.256ZM248.339 65.984V70.016H251.111V65.984H248.339ZM255.358 66.044V69.956H258.694V71H255.586L254.194 70.196V65.804L255.586 65H258.694V66.044H255.358ZM261.294 68.54V70.016H263.706V68.54H261.294ZM261.522 71.06L260.13 70.256V68.3L261.522 67.496H263.706V66.044H260.73V65H263.478L264.87 65.804V71.06H264.558L263.706 70.568L262.854 71.06H261.522ZM268.184 71L266.792 70.196V62.24H267.956V69.956H269.396V71H268.184ZM271.957 72.56V63.08H270.361V62.24H272.917V73.4H270.361V72.56H271.957Z" fill="#F7DF1E"/>
</svg>
