<svg width="200" height="100" viewBox="0 0 200 100" fill="none" xmlns="http://www.w3.org/2000/svg">
    <rect width="200" height="100" fill="#E5E5E5"/>
    <rect width="100" height="100" fill="#F7DF1E"/>
    <rect x="100" width="100" height="100" fill="#333333"/>
    <path d="M19.3401 93V86.73H25.6101V93H19.3401ZM36.1662 83.1V89.04H45.3732V93H31.5462V69.9H45.3732V73.86H36.1662V79.14H43.3932V83.1H36.1662ZM54.2775 78.051V93H49.6575V69.9H53.9805L63.9465 84.849H64.0125V69.9H68.6325V93H64.3095L54.3435 78.051H54.2775ZM93.5184 69.9L85.2684 93H80.1864L71.9364 69.9H76.6224L82.7274 87.357H82.7934L88.8324 69.9H93.5184Z" fill="#333333"/>
    <path d="M112.27 82.605V93H108.97V69.9H122.467V72.87H112.27V79.635H120.487V82.605H112.27ZM126.437 93V69.9H129.737V90.03H138.284V93H126.437ZM159.553 90.954L155.725 93.165H146.056L142.228 90.954V71.946L146.056 69.735H155.725L159.553 71.946V90.954ZM145.528 72.705V90.195H156.253V72.705H145.528ZM193.083 69.9L187.143 93H183.216L178.332 74.487H178.266L173.382 93H169.455L163.515 69.9H166.716L171.402 88.776H171.468L176.451 69.9H180.147L185.097 88.776H185.163L189.882 69.9H193.083Z" fill="#F7DF1E"/>
    <rect x="95" y="79.15" width="5" height="4" fill="#333333"/>
    <rect x="100" y="79.15" width="5" height="4" fill="#F7DF1E"/>
    <path d="M124.028 7.94H125.84L126.692 8.432V5.24H127.856V14.06H126.98L126.692 13.568L125.84 14.06H124.028L122.636 13.256V8.744L124.028 7.94ZM126.692 13.016V8.984H123.8V13.016H126.692ZM134.513 12.956V14H131.165L129.773 13.196V8.744L131.165 7.94H133.121L134.513 8.744V11.408H130.937V12.956H134.513ZM130.937 8.984V10.364H133.349V8.984H130.937ZM136.849 8L138.613 12.896H138.637L140.413 8H141.553L139.333 14H137.929L135.709 8H136.849ZM147.497 12.956V14H144.149L142.757 13.196V8.744L144.149 7.94H146.105L147.497 8.744V11.408H143.921V12.956H147.497ZM143.921 8.984V10.364H146.333V8.984H143.921ZM150.805 14L149.413 13.196V5.24H150.577V12.956H152.017V14H150.805ZM158.322 13.256L156.93 14.06H154.614L153.222 13.256V8.744L154.614 7.94H156.93L158.322 8.744V13.256ZM154.386 8.984V13.016H157.158V8.984H154.386ZM164.069 14.06H162.257L161.405 13.568V16.4H160.241V7.94H161.117L161.405 8.432L162.257 7.94H164.069L165.461 8.744V13.256L164.069 14.06ZM161.405 8.984V13.016H164.297V8.984H161.405ZM175.454 8.744V14H174.29V8.984H171.998V14H170.834V8.984H168.542V14H167.378V7.94H168.254L168.542 8.432L169.394 7.94H170.606L171.722 8.588L172.85 7.94H174.062L175.454 8.744ZM182.114 12.956V14H178.766L177.374 13.196V8.744L178.766 7.94H180.722L182.114 8.744V11.408H178.538V12.956H182.114ZM178.538 8.984V10.364H180.95V8.984H178.538ZM189.13 8.744V14H187.966V8.984H185.194V14H184.03V7.94H184.906L185.194 8.432L186.046 7.94H187.738L189.13 8.744ZM190.57 9.044V8H191.674V6.992L192.838 6.32V8H194.278V9.044H192.838V12.956H194.278V14H193.066L191.674 13.196V9.044H190.57ZM172.57 22.044V21H173.674V19.992L174.838 19.32V21H176.278V22.044H174.838V25.956H176.278V27H175.066L173.674 26.196V22.044H172.57ZM182.7 25.956V27H179.352L177.96 26.196V21.744L179.352 20.94H181.308L182.7 21.744V24.408H179.124V25.956H182.7ZM179.124 21.984V23.364H181.536V21.984H179.124ZM189.128 24.24V26.196L187.736 27H184.616V25.956H187.964V24.48H186.008L184.616 23.676V21.804L186.008 21H189.008V22.044H185.78V23.436H187.736L189.128 24.24ZM190.57 22.044V21H191.674V19.992L192.838 19.32V21H194.278V22.044H192.838V25.956H194.278V27H193.066L191.674 26.196V22.044H190.57ZM138.604 41.06H136.792L135.94 40.568V43.4H134.776V34.94H135.652L135.94 35.432L136.792 34.94H138.604L139.996 35.744V40.256L138.604 41.06ZM135.94 35.984V40.016H138.832V35.984H135.94ZM145.261 36.044H143.077V41H141.913V35H142.789L143.077 35.492L143.929 35H145.261V36.044ZM151.677 40.256L150.285 41.06H147.969L146.577 40.256V35.744L147.969 34.94H150.285L151.677 35.744V40.256ZM147.741 35.984V40.016H150.513V35.984H147.741ZM154.989 34.94H156.801L157.653 35.432V32.24H158.817V41.06H157.941L157.653 40.568L156.801 41.06H154.989L153.597 40.256V35.744L154.989 34.94ZM157.653 40.016V35.984H154.761V40.016H157.653ZM160.733 40.256V35H161.897V40.016H164.669V35H165.833V41.06H164.957L164.669 40.568L163.817 41.06H162.125L160.733 40.256ZM168.917 36.044V39.956H172.253V41H169.145L167.753 40.196V35.804L169.145 35H172.253V36.044H168.917ZM173.449 36.044V35H174.553V33.992L175.717 33.32V35H177.157V36.044H175.717V39.956H177.157V41H175.945L174.553 40.196V36.044H173.449ZM180.003 35V41H178.839V35H180.003ZM178.779 33.524V32.24H180.063V33.524H178.779ZM187.021 40.256L185.629 41.06H183.313L181.921 40.256V35.744L183.313 34.94H185.629L187.021 35.744V40.256ZM183.085 35.984V40.016H185.857V35.984H183.085ZM194.04 35.744V41H192.876V35.984H190.104V41H188.94V34.94H189.816L190.104 35.432L190.956 34.94H192.648L194.04 35.744ZM159.384 48.712L159.264 46.48H160.32L160.2 48.712L162.276 47.908L162.612 48.904L160.464 49.48L161.856 51.196L161.004 51.832L159.792 49.984L158.58 51.832L157.728 51.196L159.12 49.48L156.972 48.904L157.308 47.908L159.384 48.712ZM164.77 55V53.2H166.57V55H164.77ZM170.118 55L168.726 54.196V46.24H169.89V53.956H171.33V55H170.118ZM177.634 54.256L176.242 55.06H173.926L172.534 54.256V49.744L173.926 48.94H176.242L177.634 49.744V54.256ZM173.698 49.984V54.016H176.47V49.984H173.698ZM180.718 50.044V53.956H184.054V55H180.946L179.554 54.196V49.804L180.946 49H184.054V50.044H180.718ZM186.654 52.54V54.016H189.066V52.54H186.654ZM186.882 55.06L185.49 54.256V52.3L186.882 51.496H189.066V50.044H186.09V49H188.838L190.23 49.804V55.06H189.918L189.066 54.568L188.214 55.06H186.882ZM193.543 55L192.151 54.196V46.24H193.315V53.956H194.755V55H193.543Z" fill="#F7DF1E"/>
</svg>
